<mxfile host="app.diagrams.net" modified="2022-04-27T17:07:25.192Z" agent="5.0 (Macintosh; Intel Mac OS X 10_15_7) AppleWebKit/537.36 (KHTML, like Gecko) Chrome/99.0.4844.84 Safari/537.36" etag="AQhLb9f5jcrUCDoluzbL" version="17.4.6" type="github" pages="3">
  <diagram id="WnJIDlszX0M_L3Teho5m" name="Page-1">
    <mxGraphModel dx="1901" dy="1101" grid="1" gridSize="10" guides="1" tooltips="1" connect="1" arrows="1" fold="1" page="1" pageScale="1" pageWidth="850" pageHeight="1100" math="0" shadow="0">
      <root>
        <mxCell id="0" />
        <mxCell id="1" parent="0" />
        <mxCell id="cKUXIafTFXfG4jMEx32Y-6" value="" style="shape=image;html=1;verticalLabelPosition=bottom;verticalAlign=top;imageAspect=1;aspect=fixed;image=img/clipart/Gear_128x128.png" parent="1" vertex="1">
          <mxGeometry x="50" y="979" width="52" height="61" as="geometry" />
        </mxCell>
        <mxCell id="cKUXIafTFXfG4jMEx32Y-7" value="" style="shape=image;html=1;verticalLabelPosition=bottom;verticalAlign=top;imageAspect=1;aspect=fixed;image=img/clipart/Gear_128x128.png" parent="1" vertex="1">
          <mxGeometry x="320" y="979" width="52" height="61" as="geometry" />
        </mxCell>
        <mxCell id="cKUXIafTFXfG4jMEx32Y-9" value="LEVEL 1" style="rounded=1;whiteSpace=wrap;html=1;" parent="1" vertex="1">
          <mxGeometry x="120" y="980" width="120" height="60" as="geometry" />
        </mxCell>
        <mxCell id="cKUXIafTFXfG4jMEx32Y-23" value="LEVEL 2" style="rounded=1;whiteSpace=wrap;html=1;" parent="1" vertex="1">
          <mxGeometry x="400" y="980" width="120" height="60" as="geometry" />
        </mxCell>
        <mxCell id="cKUXIafTFXfG4jMEx32Y-24" value="LEVEL 3" style="rounded=1;whiteSpace=wrap;html=1;" parent="1" vertex="1">
          <mxGeometry x="680" y="979" width="120" height="60" as="geometry" />
        </mxCell>
        <mxCell id="cKUXIafTFXfG4jMEx32Y-25" value="" style="shape=image;html=1;verticalLabelPosition=bottom;verticalAlign=top;imageAspect=1;aspect=fixed;image=img/clipart/Gear_128x128.png" parent="1" vertex="1">
          <mxGeometry x="610" y="978" width="52" height="61" as="geometry" />
        </mxCell>
        <mxCell id="cKUXIafTFXfG4jMEx32Y-26" value="" style="endArrow=none;html=1;rounded=0;" parent="1" edge="1">
          <mxGeometry width="50" height="50" relative="1" as="geometry">
            <mxPoint x="10" y="200" as="sourcePoint" />
            <mxPoint x="840" y="200" as="targetPoint" />
            <Array as="points">
              <mxPoint x="430" y="200" />
            </Array>
          </mxGeometry>
        </mxCell>
        <mxCell id="cKUXIafTFXfG4jMEx32Y-30" value="&lt;font style=&quot;font-size: 33px&quot;&gt;SIGHT WORD&lt;/font&gt;" style="rounded=1;whiteSpace=wrap;html=1;" parent="1" vertex="1">
          <mxGeometry x="215" y="90" width="430" height="60" as="geometry" />
        </mxCell>
        <mxCell id="cKUXIafTFXfG4jMEx32Y-31" value="H" style="ellipse;whiteSpace=wrap;html=1;aspect=fixed;fontSize=33;" parent="1" vertex="1">
          <mxGeometry x="380" y="400" width="80" height="80" as="geometry" />
        </mxCell>
        <mxCell id="cKUXIafTFXfG4jMEx32Y-32" value="S" style="ellipse;whiteSpace=wrap;html=1;aspect=fixed;fontSize=33;" parent="1" vertex="1">
          <mxGeometry x="90" y="270" width="80" height="80" as="geometry" />
        </mxCell>
        <mxCell id="cKUXIafTFXfG4jMEx32Y-33" value="W" style="ellipse;whiteSpace=wrap;html=1;aspect=fixed;fontSize=33;" parent="1" vertex="1">
          <mxGeometry x="510" y="290" width="80" height="80" as="geometry" />
        </mxCell>
        <mxCell id="cKUXIafTFXfG4jMEx32Y-34" value="T" style="ellipse;whiteSpace=wrap;html=1;aspect=fixed;fontSize=33;" parent="1" vertex="1">
          <mxGeometry x="200" y="500" width="80" height="80" as="geometry" />
        </mxCell>
        <mxCell id="cKUXIafTFXfG4jMEx32Y-35" value="O" style="ellipse;whiteSpace=wrap;html=1;aspect=fixed;fontSize=33;" parent="1" vertex="1">
          <mxGeometry x="650" y="390" width="80" height="80" as="geometry" />
        </mxCell>
        <mxCell id="cKUXIafTFXfG4jMEx32Y-36" value="G" style="ellipse;whiteSpace=wrap;html=1;aspect=fixed;fontSize=33;" parent="1" vertex="1">
          <mxGeometry x="570" y="550" width="80" height="80" as="geometry" />
        </mxCell>
        <mxCell id="cKUXIafTFXfG4jMEx32Y-37" value="" style="endArrow=classic;html=1;rounded=0;fontSize=33;" parent="1" edge="1">
          <mxGeometry width="50" height="50" relative="1" as="geometry">
            <mxPoint x="240" y="590" as="sourcePoint" />
            <mxPoint x="240" y="710" as="targetPoint" />
          </mxGeometry>
        </mxCell>
        <mxCell id="cKUXIafTFXfG4jMEx32Y-38" value="" style="endArrow=classic;html=1;rounded=0;fontSize=33;" parent="1" edge="1">
          <mxGeometry width="50" height="50" relative="1" as="geometry">
            <mxPoint x="612" y="640" as="sourcePoint" />
            <mxPoint x="612" y="790" as="targetPoint" />
          </mxGeometry>
        </mxCell>
        <mxCell id="cKUXIafTFXfG4jMEx32Y-39" value="" style="endArrow=none;html=1;rounded=0;fontSize=33;" parent="1" edge="1">
          <mxGeometry width="50" height="50" relative="1" as="geometry">
            <mxPoint x="20" y="920" as="sourcePoint" />
            <mxPoint x="840" y="920" as="targetPoint" />
          </mxGeometry>
        </mxCell>
        <mxCell id="cKUXIafTFXfG4jMEx32Y-44" value="" style="shape=table;startSize=0;container=1;collapsible=0;childLayout=tableLayout;fontSize=33;" parent="1" vertex="1">
          <mxGeometry x="225" y="160" width="420" height="40" as="geometry" />
        </mxCell>
        <mxCell id="cKUXIafTFXfG4jMEx32Y-45" value="" style="shape=tableRow;horizontal=0;startSize=0;swimlaneHead=0;swimlaneBody=0;top=0;left=0;bottom=0;right=0;collapsible=0;dropTarget=0;fillColor=none;points=[[0,0.5],[1,0.5]];portConstraint=eastwest;fontSize=33;" parent="cKUXIafTFXfG4jMEx32Y-44" vertex="1">
          <mxGeometry width="420" height="40" as="geometry" />
        </mxCell>
        <mxCell id="cKUXIafTFXfG4jMEx32Y-46" value="" style="shape=partialRectangle;html=1;whiteSpace=wrap;connectable=0;overflow=hidden;fillColor=#fff2cc;top=0;left=0;bottom=0;right=0;pointerEvents=1;fontSize=33;strokeColor=#d6b656;" parent="cKUXIafTFXfG4jMEx32Y-45" vertex="1">
          <mxGeometry width="60" height="40" as="geometry">
            <mxRectangle width="60" height="40" as="alternateBounds" />
          </mxGeometry>
        </mxCell>
        <mxCell id="cKUXIafTFXfG4jMEx32Y-47" value="" style="shape=partialRectangle;html=1;whiteSpace=wrap;connectable=0;overflow=hidden;fillColor=#f8cecc;top=0;left=0;bottom=0;right=0;pointerEvents=1;fontSize=33;strokeColor=#b85450;" parent="cKUXIafTFXfG4jMEx32Y-45" vertex="1">
          <mxGeometry x="60" width="60" height="40" as="geometry">
            <mxRectangle width="60" height="40" as="alternateBounds" />
          </mxGeometry>
        </mxCell>
        <mxCell id="cKUXIafTFXfG4jMEx32Y-48" value="" style="shape=partialRectangle;html=1;whiteSpace=wrap;connectable=0;overflow=hidden;fillColor=#fa6800;top=0;left=0;bottom=0;right=0;pointerEvents=1;fontSize=33;strokeColor=#C73500;fontColor=#000000;" parent="cKUXIafTFXfG4jMEx32Y-45" vertex="1">
          <mxGeometry x="120" width="60" height="40" as="geometry">
            <mxRectangle width="60" height="40" as="alternateBounds" />
          </mxGeometry>
        </mxCell>
        <mxCell id="cKUXIafTFXfG4jMEx32Y-49" value="" style="shape=partialRectangle;html=1;whiteSpace=wrap;connectable=0;overflow=hidden;fillColor=#a20025;top=0;left=0;bottom=0;right=0;pointerEvents=1;fontSize=33;strokeColor=#6F0000;fontColor=#ffffff;" parent="cKUXIafTFXfG4jMEx32Y-45" vertex="1">
          <mxGeometry x="180" width="60" height="40" as="geometry">
            <mxRectangle width="60" height="40" as="alternateBounds" />
          </mxGeometry>
        </mxCell>
        <mxCell id="cKUXIafTFXfG4jMEx32Y-50" value="" style="shape=partialRectangle;html=1;whiteSpace=wrap;connectable=0;overflow=hidden;fillColor=#008a00;top=0;left=0;bottom=0;right=0;pointerEvents=1;fontSize=33;strokeColor=#005700;fontColor=#ffffff;" parent="cKUXIafTFXfG4jMEx32Y-45" vertex="1">
          <mxGeometry x="240" width="60" height="40" as="geometry">
            <mxRectangle width="60" height="40" as="alternateBounds" />
          </mxGeometry>
        </mxCell>
        <mxCell id="cKUXIafTFXfG4jMEx32Y-51" value="" style="shape=partialRectangle;html=1;whiteSpace=wrap;connectable=0;overflow=hidden;fillColor=#0050ef;top=0;left=0;bottom=0;right=0;pointerEvents=1;fontSize=33;fontColor=#ffffff;strokeColor=#001DBC;" parent="cKUXIafTFXfG4jMEx32Y-45" vertex="1">
          <mxGeometry x="300" width="60" height="40" as="geometry">
            <mxRectangle width="60" height="40" as="alternateBounds" />
          </mxGeometry>
        </mxCell>
        <mxCell id="cKUXIafTFXfG4jMEx32Y-52" value="" style="shape=partialRectangle;html=1;whiteSpace=wrap;connectable=0;overflow=hidden;fillColor=#a0522d;top=0;left=0;bottom=0;right=0;pointerEvents=1;fontSize=33;fontColor=#ffffff;strokeColor=#6D1F00;" parent="cKUXIafTFXfG4jMEx32Y-45" vertex="1">
          <mxGeometry x="360" width="60" height="40" as="geometry">
            <mxRectangle width="60" height="40" as="alternateBounds" />
          </mxGeometry>
        </mxCell>
        <mxCell id="RRdCFKjJR65hyFqVhLkd-1" value="" style="endArrow=classic;html=1;rounded=0;fontSize=33;" parent="1" edge="1">
          <mxGeometry width="50" height="50" relative="1" as="geometry">
            <mxPoint x="260" y="1030" as="sourcePoint" />
            <mxPoint x="300" y="1031" as="targetPoint" />
            <Array as="points">
              <mxPoint x="290" y="1031" />
            </Array>
          </mxGeometry>
        </mxCell>
        <mxCell id="RRdCFKjJR65hyFqVhLkd-2" value="" style="endArrow=classic;html=1;rounded=0;fontSize=33;" parent="1" edge="1">
          <mxGeometry width="50" height="50" relative="1" as="geometry">
            <mxPoint x="550" y="1031" as="sourcePoint" />
            <mxPoint x="590" y="1031" as="targetPoint" />
            <Array as="points">
              <mxPoint x="580" y="1031" />
            </Array>
          </mxGeometry>
        </mxCell>
        <mxCell id="gyAe4lmDS8Z8qm_nOmmH-1" value="" style="endArrow=classic;html=1;rounded=0;fontSize=25;" edge="1" parent="1">
          <mxGeometry width="50" height="50" relative="1" as="geometry">
            <mxPoint x="120" y="390" as="sourcePoint" />
            <mxPoint x="120" y="460" as="targetPoint" />
          </mxGeometry>
        </mxCell>
        <mxCell id="gyAe4lmDS8Z8qm_nOmmH-2" value="" style="endArrow=classic;html=1;rounded=0;fontSize=25;" edge="1" parent="1">
          <mxGeometry width="50" height="50" relative="1" as="geometry">
            <mxPoint x="424.33" y="495" as="sourcePoint" />
            <mxPoint x="424.33" y="585" as="targetPoint" />
          </mxGeometry>
        </mxCell>
        <mxCell id="scrmx2f6whs6TdSDeBaj-1" value="LEVEL 1 - CATCH LETTERS OF YOUR SIGHT WORD" style="rounded=1;whiteSpace=wrap;html=1;fontSize=25;fillColor=#fff2cc;strokeColor=#d6b656;" vertex="1" parent="1">
          <mxGeometry x="110" y="20" width="670" height="60" as="geometry" />
        </mxCell>
      </root>
    </mxGraphModel>
  </diagram>
  <diagram id="79GiQedWghad5ZgvCJ7l" name="Page-2">
    <mxGraphModel dx="1901" dy="1101" grid="1" gridSize="10" guides="1" tooltips="1" connect="1" arrows="1" fold="1" page="1" pageScale="1" pageWidth="850" pageHeight="1100" math="0" shadow="0">
      <root>
        <mxCell id="0" />
        <mxCell id="1" parent="0" />
        <mxCell id="iZF05i7lwVIOQxYGb6lH-1" value="LEVEL 3 - SET TIME &amp;amp; TYPE YOUR SIGTH WORD" style="shape=ext;double=1;rounded=1;whiteSpace=wrap;html=1;fontSize=33;fillColor=#fff2cc;strokeColor=#d6b656;" parent="1" vertex="1">
          <mxGeometry x="90" y="40" width="700" height="80" as="geometry" />
        </mxCell>
        <mxCell id="iZF05i7lwVIOQxYGb6lH-2" value="" style="shape=flexArrow;endArrow=classic;html=1;rounded=0;fontSize=33;" parent="1" edge="1">
          <mxGeometry width="50" height="50" relative="1" as="geometry">
            <mxPoint x="439.5" y="150" as="sourcePoint" />
            <mxPoint x="440" y="230" as="targetPoint" />
          </mxGeometry>
        </mxCell>
        <mxCell id="iZF05i7lwVIOQxYGb6lH-3" value="HERE IS YOUR SIGHT WORD" style="rounded=1;whiteSpace=wrap;html=1;fontSize=33;" parent="1" vertex="1">
          <mxGeometry x="90" y="250" width="700" height="60" as="geometry" />
        </mxCell>
        <mxCell id="iZF05i7lwVIOQxYGb6lH-4" value="GO!" style="rounded=1;whiteSpace=wrap;html=1;fontSize=33;" parent="1" vertex="1">
          <mxGeometry x="380" y="460" width="120" height="60" as="geometry" />
        </mxCell>
        <mxCell id="iZF05i7lwVIOQxYGb6lH-5" value="" style="shape=flexArrow;endArrow=classic;html=1;rounded=0;fontSize=33;" parent="1" edge="1">
          <mxGeometry width="50" height="50" relative="1" as="geometry">
            <mxPoint x="440" y="340" as="sourcePoint" />
            <mxPoint x="440" y="430" as="targetPoint" />
            <Array as="points">
              <mxPoint x="440" y="380" />
              <mxPoint x="440" y="390" />
            </Array>
          </mxGeometry>
        </mxCell>
        <mxCell id="Bl_N5Q-DrrawHoFV0YX2-1" value="" style="shape=flexArrow;endArrow=classic;html=1;rounded=0;fontSize=33;" parent="1" edge="1">
          <mxGeometry width="50" height="50" relative="1" as="geometry">
            <mxPoint x="439.5" y="740" as="sourcePoint" />
            <mxPoint x="439.8914590747331" y="850" as="targetPoint" />
          </mxGeometry>
        </mxCell>
        <mxCell id="Bl_N5Q-DrrawHoFV0YX2-3" value="" style="shape=image;html=1;verticalLabelPosition=bottom;verticalAlign=top;imageAspect=1;aspect=fixed;image=img/clipart/Gear_128x128.png;fontSize=33;" parent="1" vertex="1">
          <mxGeometry x="328" y="889" width="52" height="61" as="geometry" />
        </mxCell>
        <mxCell id="L72QRke7piGwocwdqNdn-1" value="LEVEL 3" style="rounded=1;whiteSpace=wrap;html=1;fontSize=33;" parent="1" vertex="1">
          <mxGeometry x="420" y="890" width="190" height="60" as="geometry" />
        </mxCell>
        <mxCell id="bvJvhtLhx85ihFcOq9Rs-1" value="" style="endArrow=none;html=1;rounded=0;fontSize=25;" edge="1" parent="1">
          <mxGeometry width="50" height="50" relative="1" as="geometry">
            <mxPoint x="50" y="560" as="sourcePoint" />
            <mxPoint x="800" y="560" as="targetPoint" />
          </mxGeometry>
        </mxCell>
        <mxCell id="bvJvhtLhx85ihFcOq9Rs-3" value="Now you are ready for Level 3&amp;nbsp;" style="rounded=1;whiteSpace=wrap;html=1;fontSize=25;" vertex="1" parent="1">
          <mxGeometry x="250" y="640" width="420" height="60" as="geometry" />
        </mxCell>
      </root>
    </mxGraphModel>
  </diagram>
  <diagram id="IiuGbCuF3j701i4k0-L-" name="Page-3">
    <mxGraphModel dx="1901" dy="1101" grid="1" gridSize="10" guides="1" tooltips="1" connect="1" arrows="1" fold="1" page="1" pageScale="1" pageWidth="850" pageHeight="1100" math="0" shadow="0">
      <root>
        <mxCell id="0" />
        <mxCell id="1" parent="0" />
        <mxCell id="jEifX6SJz9EeRJYAZp3s-2" value="LEVEL 3 - CATCH YOUR SIGHT WORD" style="rounded=1;whiteSpace=wrap;html=1;fontSize=33;fillColor=#fff2cc;strokeColor=#d6b656;" parent="1" vertex="1">
          <mxGeometry x="150" y="40" width="620" height="60" as="geometry" />
        </mxCell>
        <mxCell id="jEifX6SJz9EeRJYAZp3s-4" value="WORD1" style="ellipse;whiteSpace=wrap;html=1;fontSize=25;" parent="1" vertex="1">
          <mxGeometry x="170" y="170" width="120" height="80" as="geometry" />
        </mxCell>
        <mxCell id="jEifX6SJz9EeRJYAZp3s-5" value="WORD2" style="ellipse;whiteSpace=wrap;html=1;fontSize=25;" parent="1" vertex="1">
          <mxGeometry x="380" y="230" width="120" height="80" as="geometry" />
        </mxCell>
        <mxCell id="jEifX6SJz9EeRJYAZp3s-6" value="WORD3" style="ellipse;whiteSpace=wrap;html=1;fontSize=25;" parent="1" vertex="1">
          <mxGeometry x="590" y="180" width="120" height="80" as="geometry" />
        </mxCell>
        <mxCell id="jEifX6SJz9EeRJYAZp3s-7" value="WORD4" style="ellipse;whiteSpace=wrap;html=1;fontSize=25;" parent="1" vertex="1">
          <mxGeometry x="250" y="380" width="120" height="80" as="geometry" />
        </mxCell>
        <mxCell id="jEifX6SJz9EeRJYAZp3s-8" value="WORD5" style="ellipse;whiteSpace=wrap;html=1;fontSize=25;" parent="1" vertex="1">
          <mxGeometry x="570" y="410" width="120" height="80" as="geometry" />
        </mxCell>
        <mxCell id="jEifX6SJz9EeRJYAZp3s-9" value="" style="endArrow=classic;html=1;rounded=0;fontSize=25;" parent="1" edge="1">
          <mxGeometry width="50" height="50" relative="1" as="geometry">
            <mxPoint x="309.5" y="470" as="sourcePoint" />
            <mxPoint x="309.5" y="560" as="targetPoint" />
          </mxGeometry>
        </mxCell>
        <mxCell id="jEifX6SJz9EeRJYAZp3s-10" value="" style="endArrow=classic;html=1;rounded=0;fontSize=25;" parent="1" edge="1">
          <mxGeometry width="50" height="50" relative="1" as="geometry">
            <mxPoint x="640" y="510" as="sourcePoint" />
            <mxPoint x="640" y="560" as="targetPoint" />
          </mxGeometry>
        </mxCell>
        <mxCell id="jEifX6SJz9EeRJYAZp3s-12" value="YOU WON! PICK A STICKER!" style="rounded=1;whiteSpace=wrap;html=1;fontSize=25;" parent="1" vertex="1">
          <mxGeometry x="160" y="810" width="580" height="60" as="geometry" />
        </mxCell>
        <mxCell id="jEifX6SJz9EeRJYAZp3s-13" value="" style="endArrow=none;html=1;rounded=0;fontSize=25;" parent="1" edge="1">
          <mxGeometry width="50" height="50" relative="1" as="geometry">
            <mxPoint x="20" y="760" as="sourcePoint" />
            <mxPoint x="840" y="760" as="targetPoint" />
          </mxGeometry>
        </mxCell>
        <mxCell id="jEifX6SJz9EeRJYAZp3s-14" value="" style="shape=flexArrow;endArrow=classic;html=1;rounded=0;fontSize=25;" parent="1" edge="1">
          <mxGeometry width="50" height="50" relative="1" as="geometry">
            <mxPoint x="459.5" y="890" as="sourcePoint" />
            <mxPoint x="459.83333333333326" y="950" as="targetPoint" />
          </mxGeometry>
        </mxCell>
        <mxCell id="jEifX6SJz9EeRJYAZp3s-16" value="" style="rounded=1;whiteSpace=wrap;html=1;strokeWidth=2;fillWeight=4;hachureGap=8;hachureAngle=45;fillColor=#1ba1e2;sketch=1;fontSize=25;" parent="1" vertex="1">
          <mxGeometry x="110" y="980" width="120" height="60" as="geometry" />
        </mxCell>
        <mxCell id="jEifX6SJz9EeRJYAZp3s-17" value="" style="ellipse;whiteSpace=wrap;html=1;strokeWidth=2;fillWeight=2;hachureGap=8;fillColor=#990000;fillStyle=dots;sketch=1;fontSize=25;" parent="1" vertex="1">
          <mxGeometry x="330" y="980" width="120" height="60" as="geometry" />
        </mxCell>
        <mxCell id="jEifX6SJz9EeRJYAZp3s-18" value="" style="rhombus;whiteSpace=wrap;html=1;strokeWidth=2;fillWeight=-1;hachureGap=8;fillStyle=cross-hatch;fillColor=#006600;sketch=1;fontSize=25;" parent="1" vertex="1">
          <mxGeometry x="520" y="980" width="120" height="60" as="geometry" />
        </mxCell>
        <mxCell id="jEifX6SJz9EeRJYAZp3s-19" value="" style="html=1;whiteSpace=wrap;shape=isoCube2;backgroundOutline=1;isoAngle=15;fontSize=25;fillColor=#fa6800;fontColor=#000000;strokeColor=#C73500;" parent="1" vertex="1">
          <mxGeometry x="700" y="970" width="90" height="80" as="geometry" />
        </mxCell>
        <mxCell id="eKjJtveDDEISSZutp7aM-1" value="" style="endArrow=classic;html=1;rounded=0;fontSize=25;" edge="1" parent="1">
          <mxGeometry width="50" height="50" relative="1" as="geometry">
            <mxPoint x="220" y="260" as="sourcePoint" />
            <mxPoint x="220" y="350" as="targetPoint" />
          </mxGeometry>
        </mxCell>
        <mxCell id="eKjJtveDDEISSZutp7aM-4" value="" style="endArrow=classic;html=1;rounded=0;fontSize=25;" edge="1" parent="1">
          <mxGeometry width="50" height="50" relative="1" as="geometry">
            <mxPoint x="439.33" y="330" as="sourcePoint" />
            <mxPoint x="439.33" y="420" as="targetPoint" />
            <Array as="points">
              <mxPoint x="439.33" y="390" />
            </Array>
          </mxGeometry>
        </mxCell>
        <mxCell id="eKjJtveDDEISSZutp7aM-5" value="" style="endArrow=classic;html=1;rounded=0;fontSize=25;" edge="1" parent="1">
          <mxGeometry width="50" height="50" relative="1" as="geometry">
            <mxPoint x="659.9999999999999" y="270" as="sourcePoint" />
            <mxPoint x="659.9999999999999" y="360" as="targetPoint" />
            <Array as="points">
              <mxPoint x="660" y="330" />
            </Array>
          </mxGeometry>
        </mxCell>
      </root>
    </mxGraphModel>
  </diagram>
</mxfile>
